<?xml version="1.0" standalone="no"?>
<!DOCTYPE svg PUBLIC "-//W3C//DTD SVG 20010904//EN"
 "http://www.w3.org/TR/2001/REC-SVG-20010904/DTD/svg10.dtd">
<svg version="1.0" xmlns="http://www.w3.org/2000/svg"
 width="48.000000pt" height="48.000000pt" viewBox="0 0 48.000000 48.000000"
 preserveAspectRatio="xMidYMid meet">
<metadata>
Created by potrace 1.16, written by Peter Selinger 2001-2019
</metadata>
<g transform="translate(0.000000,48.000000) scale(0.100000,-0.100000)"
fill="#000000" stroke="none">
<path d="M191 432 c-19 -9 -37 -23 -39 -30 -2 -7 13 -1 33 13 40 27 63 27 113
1 21 -11 29 -21 26 -31 -8 -19 -14 -19 -28 -1 -6 8 -22 17 -36 20 l-25 7 25
-15 c14 -9 21 -15 16 -16 -5 0 -1 -9 8 -19 16 -18 16 -22 2 -48 -13 -24 -15
-25 -16 -7 0 21 -18 44 -34 44 -6 0 -5 -5 2 -12 21 -21 12 -42 -31 -69 -44
-28 -97 -45 -97 -32 0 22 40 71 57 70 14 -2 18 6 20 38 1 22 -1 33 -4 25 -9
-21 -43 -50 -60 -50 -8 0 -30 -16 -50 -35 -31 -30 -37 -43 -40 -88 -5 -66 19
-113 73 -144 34 -20 54 -23 146 -23 64 0 109 4 113 10 5 8 11 7 21 -1 11 -9
19 -8 34 6 22 20 25 50 10 91 -7 18 -7 30 0 39 20 24 -2 78 -38 94 -28 13 -32
19 -27 42 4 15 1 45 -5 67 -11 34 -18 41 -59 55 -58 21 -68 21 -110 -1z m-79
-154 c-7 -7 -12 -8 -12 -2 0 14 12 26 19 19 2 -3 -1 -11 -7 -17z m209 -22
c-23 -24 -63 -36 -134 -41 -46 -3 -61 -15 -21 -16 17 -1 22 -3 11 -6 -9 -2
-15 -9 -12 -14 4 -5 -5 -13 -19 -19 -32 -12 -34 -20 -4 -12 17 4 20 2 15 -11
-8 -21 2 -49 14 -41 5 3 9 18 9 33 0 34 22 54 75 71 22 7 51 19 65 28 32 20
87 25 93 8 3 -8 -1 -13 -11 -12 -9 0 -17 -6 -17 -14 0 -10 8 -14 24 -12 19 2
22 0 12 -12 -17 -20 -58 -28 -81 -16 -14 8 -20 8 -20 0 0 -13 14 -19 60 -24
19 -3 37 -5 40 -5 12 -2 -54 -31 -70 -31 -10 0 -27 16 -39 35 -13 22 -28 35
-41 35 -12 0 -18 -4 -15 -10 3 -5 12 -10 20 -10 7 0 17 -10 21 -22 3 -13 13
-31 21 -40 8 -9 12 -22 8 -28 -4 -7 -1 -16 6 -21 9 -5 -22 -9 -79 -9 -96 0
-146 14 -174 47 -9 11 1 9 32 -7 l45 -22 -33 35 c-31 31 -33 37 -21 58 11 22
11 23 -4 10 -15 -11 -17 -11 -17 2 0 28 35 56 85 68 28 6 68 19 90 29 22 11
51 19 64 19 l24 1 -22 -24z m-244 -54 c-8 -11 -12 -10 -20 3 -5 9 -6 23 -3 32
6 14 8 14 20 -3 11 -14 11 -22 3 -32z m-13 -44 c-3 -5 -1 -15 6 -23 7 -8 7
-15 1 -19 -12 -8 -17 0 -26 44 -7 31 -6 33 9 21 8 -7 13 -17 10 -23z m366 -53
c0 -16 -27 -32 -37 -22 -3 4 -3 13 0 22 8 20 37 20 37 0z m-73 -27 c-3 -8 -6
-5 -6 6 -1 11 2 17 5 13 3 -3 4 -12 1 -19z"/>
<path d="M128 173 c7 -3 16 -2 19 1 4 3 -2 6 -13 5 -11 0 -14 -3 -6 -6z"/>
</g>
</svg>
