<?xml version="1.0" standalone="no"?>
<!DOCTYPE svg PUBLIC "-//W3C//DTD SVG 20010904//EN"
 "http://www.w3.org/TR/2001/REC-SVG-20010904/DTD/svg10.dtd">
<svg version="1.0" xmlns="http://www.w3.org/2000/svg"
 width="48.000000pt" height="48.000000pt" viewBox="0 0 48.000000 48.000000"
 preserveAspectRatio="xMidYMid meet">
<metadata>
Created by potrace 1.16, written by Peter Selinger 2001-2019
</metadata>
<g transform="translate(0.000000,48.000000) scale(0.100000,-0.100000)"
fill="#000000" stroke="none">
<path d="M183 430 c-38 -23 -40 -28 -15 -46 15 -12 15 -15 2 -24 -8 -5 -10
-10 -5 -10 20 -1 -30 -30 -52 -30 -13 0 -23 -3 -23 -8 0 -4 -12 -20 -27 -36
-59 -64 -34 -185 47 -226 32 -16 59 -20 150 -20 71 0 110 4 110 11 0 5 5 7 12
3 8 -5 9 -2 5 9 -5 13 0 17 20 17 25 0 26 0 8 -20 -22 -25 -13 -26 15 -3 22
19 25 48 10 89 -7 18 -7 30 1 40 8 10 8 23 -1 49 -13 39 -50 68 -50 39 0 -10
3 -14 7 -11 13 13 33 -16 33 -49 0 -27 -4 -34 -19 -34 -11 0 -23 -4 -26 -10
-3 -6 2 -10 13 -10 35 0 33 -14 -5 -31 -45 -21 -56 -17 -82 27 -14 24 -27 34
-43 33 -21 -1 -21 -1 5 -11 15 -5 27 -13 27 -18 0 -5 11 -22 25 -38 18 -22 21
-32 13 -40 -9 -9 -8 -12 5 -12 9 0 17 -5 17 -11 0 -8 -35 -10 -114 -8 -97 4
-119 7 -142 25 -42 31 -43 51 -2 26 45 -28 59 -28 24 -1 -28 22 -34 50 -13 67
20 16 57 24 57 13 0 -6 -9 -11 -19 -11 -11 0 -22 -4 -25 -9 -4 -5 3 -7 15 -4
12 4 25 0 30 -8 7 -11 9 -11 9 3 0 23 41 53 92 67 67 19 95 48 105 110 2 13 1
31 -3 40 -9 20 -11 27 -13 44 -1 15 -84 47 -121 47 -14 0 -40 -9 -57 -20z
m117 -9 c27 -8 41 -41 17 -41 -9 0 -17 4 -19 10 -4 13 -68 31 -68 19 0 -5 7
-9 15 -9 26 0 56 -42 53 -74 -4 -37 -28 -48 -28 -12 0 14 -2 26 -4 26 -2 0
-13 3 -23 6 -17 5 -17 5 0 -6 20 -13 23 -50 3 -50 -7 0 -25 -9 -39 -20 -34
-27 -87 -38 -87 -18 0 25 41 72 50 57 12 -18 33 28 26 57 -4 13 -11 24 -16 24
-18 0 -10 17 13 28 25 12 70 13 107 3z m-187 -143 c-6 -7 -13 -22 -16 -33 -4
-16 -5 -15 -6 6 0 14 4 30 11 37 15 15 24 7 11 -10z m225 -10 c-18 -26 -99
-59 -127 -51 -28 7 -90 -16 -101 -38 -10 -19 -30 -26 -30 -11 1 25 42 53 105
71 39 10 88 26 110 35 54 21 60 20 43 -6z m-260 -59 c-15 -10 -32 16 -22 33 5
7 11 5 21 -7 10 -15 10 -20 1 -26z m111 -13 c-2 -2 -20 -6 -39 -10 -25 -4 -31
-3 -20 4 14 9 69 15 59 6z m-115 -78 c-9 -14 -24 2 -24 25 1 21 1 21 15 3 8
-10 12 -23 9 -28z m361 -18 c0 -8 -10 -16 -22 -18 -22 -3 -32 16 -16 32 12 11
38 2 38 -14z"/>
<path d="M396 223 c-11 -11 -6 -23 9 -23 8 0 15 4 15 9 0 13 -16 22 -24 14z"/>
</g>
</svg>
