<?xml version="1.0" standalone="no"?>
<!DOCTYPE svg PUBLIC "-//W3C//DTD SVG 20010904//EN"
 "http://www.w3.org/TR/2001/REC-SVG-20010904/DTD/svg10.dtd">
<svg version="1.0" xmlns="http://www.w3.org/2000/svg"
 width="48.000000pt" height="48.000000pt" viewBox="0 0 48.000000 48.000000"
 preserveAspectRatio="xMidYMid meet">
<metadata>
Created by potrace 1.16, written by Peter Selinger 2001-2019
</metadata>
<g transform="translate(0.000000,48.000000) scale(0.100000,-0.100000)"
fill="#000000" stroke="none">
<path d="M0 240 l0 -240 240 0 240 0 0 240 0 240 -240 0 -240 0 0 -240z m327
178 c27 -25 48 -83 36 -100 -4 -7 -8 -19 -9 -27 -4 -21 -46 -61 -65 -61 -10 0
-21 -5 -25 -11 -17 -28 53 4 83 38 l32 36 26 -24 c35 -32 48 -65 35 -90 -6
-10 -18 -19 -28 -20 -13 0 -11 -3 6 -9 27 -11 29 -30 3 -30 -11 0 -23 -5 -27
-11 -3 -6 -19 -9 -35 -7 -21 3 -26 1 -19 -8 6 -6 7 -19 4 -28 -4 -11 -2 -16 6
-14 7 2 15 -3 17 -9 8 -21 -209 -18 -253 3 -64 30 -97 111 -74 180 13 39 27
44 33 12 3 -15 5 -11 6 13 1 34 15 59 34 59 4 0 5 -10 2 -21 -6 -17 0 -14 24
12 17 19 31 28 31 21 0 -7 5 -10 10 -7 17 10 12 73 -7 83 -15 9 -12 13 18 31
41 26 102 21 136 -11z m121 -325 c-4 -21 -36 -29 -51 -14 -9 9 -8 14 3 21 25
16 52 12 48 -7z m-24 -50 c-8 -9 -16 -14 -17 -12 -2 2 -8 11 -15 20 -10 13 -8
15 18 11 26 -4 28 -6 14 -19z"/>
<path d="M406 223 c-11 -11 -6 -23 9 -23 8 0 15 4 15 9 0 13 -16 22 -24 14z"/>
<path d="M150 210 c-23 -7 -23 -8 10 -10 19 -1 27 -4 18 -7 -10 -2 -15 -10
-11 -19 3 -9 -1 -14 -11 -14 -14 0 -14 -2 -4 -14 11 -11 15 -10 27 8 9 11 22
27 31 33 13 11 13 14 0 23 -17 11 -25 11 -60 0z"/>
<path d="M128 173 c7 -3 16 -2 19 1 4 3 -2 6 -13 5 -11 0 -14 -3 -6 -6z"/>
<path d="M280 166 c0 -2 7 -7 16 -10 8 -3 12 -2 9 4 -6 10 -25 14 -25 6z"/>
</g>
</svg>
